<svg width="600" height="1200" xmlns="http://www.w3.org/2000/svg">
  <!-- Estilos -->
  <style>
    .line-numbers {
      font-family: 'Fira Code', monospace;
      fill: #646464;
    }
  </style>
  <!-- Linhas de números -->
  <text x="20" y="20" class="line-numbers">1</text>
  <text x="20" y="40" class="line-numbers">2</text>
  <text x="20" y="60" class="line-numbers">3</text>
  <text x="20" y="80" class="line-numbers">4</text>
  <text x="20" y="100" class="line-numbers">5</text>
  <text x="20" y="120" class="line-numbers">6</text>
  <text x="20" y="140" class="line-numbers">7</text>
  <text x="20" y="160" class="line-numbers">8</text>
  <text x="20" y="180" class="line-numbers">9</text>
  <text x="10" y="200" class="line-numbers">10</text>
  <text x="10" y="220" class="line-numbers">11</text>
  <text x="10" y="240" class="line-numbers">12</text>
  <text x="10" y="260" class="line-numbers">13</text>
  <text x="10" y="280" class="line-numbers">14</text>
  <text x="10" y="300" class="line-numbers">15</text>
  <text x="10" y="320" class="line-numbers">16</text>
  <text x="10" y="340" class="line-numbers">17</text>
  <text x="10" y="360" class="line-numbers">18</text>
  <text x="10" y="380" class="line-numbers">19</text>
  <text x="10" y="400" class="line-numbers">20</text>
  <text x="10" y="420" class="line-numbers">21</text>
  <text x="10" y="440" class="line-numbers">22</text>
  <text x="10" y="460" class="line-numbers">23</text>
  <text x="10" y="480" class="line-numbers">24</text>
  <text x="10" y="500" class="line-numbers">25</text>
  <text x="10" y="520" class="line-numbers">26</text>
  <text x="10" y="540" class="line-numbers">27</text>
  <text x="10" y="560" class="line-numbers">28</text>
  <text x="10" y="580" class="line-numbers">29</text>
  <text x="10" y="600" class="line-numbers">30</text>
  <text x="10" y="620" class="line-numbers">31</text>
  <text x="10" y="640" class="line-numbers">32</text>
  <text x="10" y="660" class="line-numbers">33</text>
  <text x="10" y="680" class="line-numbers">34</text>
  <text x="10" y="700" class="line-numbers">35</text>
  <text x="10" y="720" class="line-numbers">36</text>
  <text x="10" y="740" class="line-numbers">37</text>
  <text x="10" y="760" class="line-numbers">38</text>
  <text x="10" y="780" class="line-numbers">39</text>
  <text x="10" y="800" class="line-numbers">40</text>
  <text x="10" y="820" class="line-numbers">41</text>
  <text x="10" y="840" class="line-numbers">42</text>
</svg>
