<svg width="271" height="116" viewBox="0 0 271 116" fill="none" xmlns="http://www.w3.org/2000/svg">
<path d="M263.339 9.04601C270.189 21.7752 271.941 35.257 268.444 48.3416C264.947 61.4262 256.305 73.7255 243.255 84.1904C230.205 94.6552 213.135 102.975 193.5 108.441C173.865 113.906 152.248 116.355 130.493 115.578C108.738 114.802 87.4894 110.823 68.5605 103.981C49.6315 97.1384 33.5835 87.6362 21.7851 76.2843C9.98672 64.9324 2.78806 52.0676 0.803087 38.7873C-1.18189 25.5069 2.10571 12.205 10.3855 0.0160061L71.4784 16.2479C67.2507 22.4716 65.572 29.2636 66.5856 36.0446C67.5991 42.8256 71.2748 49.3944 77.2991 55.1907C83.3234 60.9871 91.5176 65.839 101.183 69.3326C110.848 72.8262 121.697 74.858 132.806 75.2545C143.914 75.6511 154.952 74.4007 164.978 71.61C175.003 68.8192 183.719 64.571 190.383 59.2276C197.046 53.8842 201.458 47.6042 203.244 40.9231C205.03 34.242 204.135 27.3582 200.637 20.8586L263.339 9.04601Z" fill="#117900"/>
</svg>
